PathFileType	4	(X/Y/Z)	E:\Qualisys_Data\Carbon_Farble_Plate\Data\Amateur_Runner\S2\T3\S2T3V23_c3d.trc
DataRate	CameraRate	NumFrames	NumMarkers	Units	OrigDataRate	OrigDataStartFrame	OrigNumFrames
200.000000	200.000000	5	39	mm	200.000000	0	317
Frame#	Time	LSHO			RSHO			LICST			RICST			LASIS			LHEEL			RASIS			LTROC			RTROC			SACR			LTH1			LSK4			LTH2			LTH3			RHM5			LSK2			LTH4			RTH1			LTOE			RTH2			RTH3			RTH4			LLEP			RLEP			LSK1			LSK3			RSK1			LHM5			RSK2			LFT1			RSK3			RSK4			LLME			RLME			RTOE			RHEEL			RFT1			RFT2			LFT2			
		X1	Y1	Z1	X2	Y2	Z2	X3	Y3	Z3	X4	Y4	Z4	X5	Y5	Z5	X6	Y6	Z6	X7	Y7	Z7	X8	Y8	Z8	X9	Y9	Z9	X10	Y10	Z10	X11	Y11	Z11	X12	Y12	Z12	X13	Y13	Z13	X14	Y14	Z14	X15	Y15	Z15	X16	Y16	Z16	X17	Y17	Z17	X18	Y18	Z18	X19	Y19	Z19	X20	Y20	Z20	X21	Y21	Z21	X22	Y22	Z22	X23	Y23	Z23	X24	Y24	Z24	X25	Y25	Z25	X26	Y26	Z26	X27	Y27	Z27	X28	Y28	Z28	X29	Y29	Z29	X30	Y30	Z30	X31	Y31	Z31	X32	Y32	Z32	X33	Y33	Z33	X34	Y34	Z34	X35	Y35	Z35	X36	Y36	Z36	X37	Y37	Z37	X38	Y38	Z38	X39	Y39	Z39	

1	0	-3125.916259765625	1520.36279296875	-417.4172973632812	-3176.396728515625	1512.802124023438	-113.5006256103516	-3209.314453125	1061.535888671875	-408.3628845214844	-3195.2578125	1061.938110351562	-111.4335174560547	-3161.09326171875	1006.190002441406	-396.490478515625	-3731.368896484375	380.84228515625	-309.3302001953125	-3139.490966796875	1013.276123046875	-142.8374938964844	-3315.807861328125	968.4945068359375	-400.4713134765625	-3261.483642578125	962.5592041015625	-90.07410430908203	-3296.979736328125	1105.814086914062	-263.0711364746094	-3301.522705078125	713.1677856445312	-417.7791748046875	-3617.353515625	478.2572021484375	-387.1756591796875	-3375.8916015625	750.0604858398438	-407.4880676269531	-3345.2939453125	622.1307373046875	-398.8611450195312	-2906.303466796875	180.3556213378906	-95.82176208496094	-3543.984375	545.5269165039062	-400.233642578125	-3418.40283203125	661.1617431640625	-384.7539672851562	-3024.466552734375	761.7896728515625	-102.6571578979492	-3700.150634765625	132.1699371337891	-333.2229309082031	-3093.11328125	726.6751708984375	-99.19286346435547	-2980.306884765625	672.6881713867188	-123.6697616577148	-3054.308837890625	638.9267578125	-115.3490600585938	-3410.359130859375	601.6622314453125	-392.8863830566406	-3014.466552734375	616.8399047851562	-114.4482879638672	-3490.369140625	488.5041809082031	-401.9309387207031	-3564.46142578125	419.4183044433594	-395.7766418457031	-2981.207763671875	493.7431335449219	-103.4630432128906	-3745.61962890625	188.2324829101562	-381.515869140625	-3061.73046875	499.81103515625	-96.10102081298828	-3746.68603515625	366.34765625	-273.9959411621094	-2988.39697265625	392.3734130859375	-109.9873428344727	-3068.05615234375	400.0360107421875	-104.7931518554688	-3717.05078125	326.4148864746094	-366.1004943847656	-3034.1298828125	205.7151641845703	-127.397705078125	-2844.156005859375	211.1798858642578	-149.5946655273438	-3093.355224609375	175.3606262207031	-185.8074645996094	-3072.392333984375	152.8120574951172	-214.4892272949219	-3088.982666015625	148.4021148681641	-167.2783660888672	-3767.433349609375	371.8867492675781	-324.5588073730469
2	0.005	-3106.26611328125	1521.146484375	-415.752685546875	-3157.382080078125	1512.851684570312	-111.9576797485352	-3188.7568359375	1062.252807617188	-408.2642211914062	-3175.691162109375	1061.863159179688	-111.438232421875	-3141.034423828125	1007.214050292969	-396.4161376953125	-3719.5048828125	389.6416625976562	-307.531005859375	-3119.84765625	1012.5224609375	-143.4539642333984	-3294.804931640625	969.954833984375	-401.8199462890625	-3242.806640625	961.1605834960938	-90.12872314453124	-3277.349609375	1106.380249023438	-262.6827392578125	-3279.160400390625	712.7765502929688	-417.3604431152344	-3599.794921875	485.1015319824219	-386.5333251953125	-3354.016845703125	749.3990478515625	-408.3092346191406	-3323.07177734375	621.5684814453125	-399.23828125	-2873.3505859375	182.5629119873047	-95.9949951171875	-3525.771240234375	549.8031005859375	-401.5048217773438	-3396.32080078125	660.1934204101562	-385.3588256835938	-3007.043701171875	758.3446044921875	-102.6492919921875	-3686.091552734375	142.2189025878906	-335.1906433105469	-3074.822509765625	723.5291137695312	-98.56316375732422	-2963.694580078125	668.8531494140625	-123.7345657348633	-3037.490966796875	635.897216796875	-115.3716049194336	-3389.765869140625	602.0869750976562	-393.8112182617188	-2998.44482421875	613.9992065429688	-114.311393737793	-3473.51318359375	490.8510131835938	-402.7688903808594	-3550.262939453125	424.7015075683594	-395.859375	-2962.229248046875	491.3005676269531	-103.3602294921875	-3731.75439453125	200.0490875244141	-381.9172973632812	-3042.42529296875	494.1618041992188	-95.64781188964844	-3733.204833984375	374.5845031738281	-272.7671203613281	-2964.35986328125	389.7783203125	-109.3455505371094	-3044.35009765625	395.3346557617188	-103.1018447875977	-3704.568359375	336.1385803222656	-364.8836059570312	-3001.78271484375	201.5623474121094	-126.4972763061523	-2812.517822265625	215.5186462402344	-150.0333099365234	-3060.927734375	167.1467742919922	-186.0835723876953	-3038.08154296875	146.1032257080078	-213.1000518798828	-3055.076416015625	141.4938049316406	-164.8766021728516	-3754.163818359375	380.8019104003906	-322.4246826171875
3	0.01	-3086.677978515625	1521.886352539062	-415.1071166992188	-3138.961669921875	1512.89501953125	-111.3568420410156	-3167.980224609375	1063.275634765625	-408.1504516601562	-3155.258056640625	1060.653564453125	-111.4207916259766	-3120.866943359375	1007.0986328125	-396.2063293457031	-3704.67822265625	398.8560791015625	-304.8422241210938	-3099.929931640625	1011.884704589844	-143.3868713378906	-3274.3095703125	970.5357666015624	-402.83740234375	-3222.40771484375	958.8860473632812	-90.77293395996094	-3257.717529296875	1106.388061523438	-262.1175537109375	-3257.064208984375	712.669921875	-417.142333984375	-3583.271728515625	491.0933227539062	-385.8366394042969	-3331.83447265625	748.4426879882812	-409.4637756347656	-3300.0771484375	620.3253784179688	-398.3938293457031	-2841.689453125	184.9352722167969	-95.92637634277344	-3506.721435546875	554.5802612304688	-401.3404235839844	-3374.655517578125	659.81103515625	-387.1607971191406	-2988.968505859375	754.24365234375	-102.0726013183594	-3674.496337890625	150.463134765625	-336.2029724121094	-3058.614990234375	721.5977783203125	-98.23291015625	-2946.808837890625	663.8801879882812	-123.3151092529297	-3019.666015625	630.8584594726562	-113.3186416625977	-3368.394775390625	601.84814453125	-394.4495544433594	-2983.12451171875	610.5989379882812	-115.263542175293	-3456.622802734375	493.8592224121094	-403.0512390136719	-3533.353515625	429.6218872070312	-394.6236572265625	-2942.0126953125	489.4292297363281	-103.6591873168945	-3718.680908203125	208.9767608642578	-382.4670715332031	-3021.816162109375	488.9795532226562	-94.23397827148438	-3718.873779296875	382.9894714355469	-270.0937805175781	-2940.195556640625	387.2501220703125	-109.1865234375	-3019.745849609375	389.6499633789062	-102.1864471435547	-3690.96142578125	345.029541015625	-363.2839050292969	-2971.548095703125	198.2060852050781	-126.295280456543	-2782.6259765625	220.8481750488281	-150.2925415039062	-3028.136474609375	161.2614898681641	-185.2535400390625	-3005.355224609375	141.2461395263672	-212.0972442626953	-3021.534423828125	135.9818115234375	-163.8563690185547	-3739.994384765625	390.1838684082031	-319.9526062011719
4	0.015	-3066.793701171875	1522.426635742188	-413.5025329589844	-3119.3564453125	1512.623901367188	-109.9843978881836	-3147.644287109375	1063.71142578125	-407.9598693847656	-3135.531982421875	1059.572998046875	-111.3200988769531	-3100.669921875	1008.519409179688	-396.1240844726562	-3689.24169921875	407.5456237792969	-302.6180114746094	-3079.3203125	1011.09716796875	-143.3150939941406	-3253.795654296875	970.5209350585938	-403.9527587890625	-3203.925537109375	957.37890625	-91.56925964355467	-3238.09619140625	1106.14013671875	-261.1100158691406	-3234.215087890625	711.0472412109375	-415.9052124023438	-3564.975830078125	497.44482421875	-385.0049438476562	-3309.44580078125	747.2461547851562	-410.7829895019531	-3277.539794921875	619.2398681640625	-398.1620483398438	-2811.40087890625	187.8859100341797	-96.03450775146484	-3486.7529296875	558.1608276367188	-401.6483459472656	-3352.25	658.138916015625	-387.9856872558594	-2969.794189453125	750.4253540039062	-100.8833999633789	-3663.45556640625	159.9667510986328	-337.8916931152344	-3041.049072265625	718.6531982421875	-97.2169952392578	-2931.600341796875	658.4185791015625	-123.5771560668945	-3003.88330078125	627.4818725585938	-113.0452041625977	-3346.719970703125	601.3670654296875	-395.3772277832031	-2966.3212890625	606.8132934570312	-114.4861602783203	-3439.198486328125	495.5298156738281	-403.7419738769531	-3518.95263671875	435.0112609863281	-394.679443359375	-2922.50439453125	487.4983825683594	-103.8662261962891	-3706.959716796875	220.2280731201172	-382.8778076171875	-3002.148193359375	483.6921691894531	-93.09973907470705	-3702.2080078125	391.8133850097656	-267.1612854003906	-2917.396240234375	385.5156860351562	-109.732421875	-2996.61181640625	384.573486328125	-101.2130279541016	-3675.944580078125	353.9785766601562	-361.3655090332031	-2941.2705078125	195.3701171875	-126.0853271484375	-2754.420166015625	225.6535797119141	-150.6775054931641	-2996.922607421875	155.8036041259766	-184.1123046875	-2973.945556640625	137.1425018310547	-212.6445465087891	-2988.69677734375	130.4299011230469	-162.8260955810547	-3725.478271484375	400.0046081542969	-318.166748046875
5	0.02	-3047.252685546875	1522.322021484375	-412.4604187011719	-3100.576416015625	1511.66259765625	-109.2530670166016	-3127.678955078125	1064.16259765625	-407.9831848144531	-3116.19140625	1058.500854492188	-111.3621139526367	-3080.755615234375	1008.292419433594	-395.8502807617188	-3674.458984375	416.8556213378906	-299.9225769042969	-3060.090576171875	1010.300598144531	-142.4331665039062	-3233.300537109375	970.43896484375	-404.9042663574219	-3184.9560546875	955.38525390625	-92.0078582763672	-3218.50537109375	1105.821411132812	-260.6554870605469	-3211.328369140625	709.6842651367188	-414.9215698242188	-3545.78173828125	502.8573303222656	-384.0385131835938	-3287.03662109375	745.9097900390625	-411.8232727050781	-3254.793212890625	617.728515625	-396.96630859375	-2782.843017578125	190.2372283935547	-96.43328094482422	-3466.264404296875	561.4892578125	-401.7518920898438	-3330.088134765625	657.0996704101562	-389.0733337402344	-2952.30712890625	745.3739624023438	-100.4773559570312	-3651.946044921875	168.5525054931641	-340.0040588378906	-3023.953125	714.9578857421875	-96.67300415039062	-2915.2119140625	652.5818481445312	-122.8813323974609	-2988.19287109375	623.9644165039062	-112.0966339111328	-3325.010009765625	600.374755859375	-395.73291015625	-2950.394287109375	602.8670043945312	-114.6847839355469	-3420.897705078125	497.5274658203125	-403.9893798828125	-3502.386474609375	439.1185302734375	-394.3050537109375	-2903.139404296875	484.9692687988281	-104.0402145385742	-3694.917724609375	230.4180450439453	-382.3861999511719	-2982.28515625	478.5705871582031	-91.76408386230467	-3687.6435546875	401.185791015625	-264.7127685546875	-2894.975830078125	383.37451171875	-109.4962158203125	-2974.0947265625	380.2427062988281	-100.167594909668	-3662.1318359375	363.8292541503906	-359.9385681152344	-2913.103271484375	192.6469268798828	-125.606086730957	-2727.4892578125	230.6353454589844	-151.8953094482422	-2967.769775390625	148.1590118408203	-181.2803192138672	-2943.313720703125	132.4618072509766	-211.4521942138672	-2958.29296875	126.5691909790039	-161.8538360595703	-3705.88037109375	408.4194030761719	-315.6484375
